<?xml version="1.0" encoding="UTF-8" standalone="no"?>
<!-- Uploaded to: SVG Repo, www.svgrepo.com, Generator: SVG Repo Mixer Tools -->

<svg
   fill="#000000"
   height="800px"
   width="800px"
   version="1.1"
   id="Layer_1"
   viewBox="0 0 512.853 512.853"
   xml:space="preserve"
   sodipodi:docname="tools-wrench-svgrepo.svg"
   inkscape:version="1.2.2 (b0a8486541, 2022-12-01)"
   xmlns:inkscape="http://www.inkscape.org/namespaces/inkscape"
   xmlns:sodipodi="http://sodipodi.sourceforge.net/DTD/sodipodi-0.dtd"
   xmlns="http://www.w3.org/2000/svg"
   xmlns:svg="http://www.w3.org/2000/svg"><defs
   id="defs155" /><sodipodi:namedview
   id="namedview153"
   pagecolor="#ffffff"
   bordercolor="#666666"
   borderopacity="1.0"
   inkscape:showpageshadow="2"
   inkscape:pageopacity="0.0"
   inkscape:pagecheckerboard="0"
   inkscape:deskcolor="#d1d1d1"
   showgrid="false"
   inkscape:zoom="0.295"
   inkscape:cx="403.38983"
   inkscape:cy="400"
   inkscape:window-width="1920"
   inkscape:window-height="1021"
   inkscape:window-x="0"
   inkscape:window-y="0"
   inkscape:window-maximized="1"
   inkscape:current-layer="Layer_1" />
<g
   transform="matrix(0.72,0,0,0.72,72.519385,71.799428)"
   id="g150">
	<g
   id="g148">
		<g
   id="g146">
			<path
   d="m 481.987,387.115 c -11.29,-7.945 -24.424,-11.986 -37.595,-12.245 -45.939,-30.142 -76.124,-52.834 -93.818,-70.528 l -41.178,-41.179 c 4.369,-1.43 8.232,-2.341 10.458,-2.341 4.254,0 6.81,-1.698 8.517,-5.091 L 501.613,83.328 c 13.653,-13.653 13.653,-35.84 0,-49.493 l -23.04,-23.04 c -13.653,-13.653 -35.84,-13.653 -49.493,0 L 253.293,185.728 c -2.557,2.557 -3.198,6.072 -1.924,9.11 -0.305,1.882 -0.921,4.249 -1.749,6.844 L 207.213,159.275 C 175.719,127.781 153.567,97.984 136.518,64.805 135.623,48.016 128.886,32.308 116.76,20.182 102.253,5.675 81.773,-1.152 61.293,0.555 c -2.56,0.853 -5.12,2.56 -5.973,4.267 -1.707,2.56 -1.707,5.973 0,8.533 L 79.213,56.022 C 74.093,67.115 62.146,73.942 50.2,73.089 L 25.453,32.129 c -0.853,-2.56 -4.267,-4.267 -6.827,-4.267 -2.56,-0.853 -5.12,0.853 -6.827,3.413 -20.48,30.72 -12.8,71.68 17.92,93.013 10.584,7.56 22.508,11.764 34.584,12.626 0.135,0.057 0.262,0.127 0.402,0.174 33.28,17.067 63.147,39.253 93.867,69.973 l 36.693,36.693 -13.653,13.653 c -3.413,3.413 -3.413,8.533 0,11.947 l 12.373,12.373 -148.905,148.908 -37.547,25.6 c -1.707,1.707 -3.413,3.413 -3.413,5.973 L -1,503.168 c 0,2.56 0.853,5.12 2.56,6.827 1.707,1.707 3.413,2.56 5.973,2.56 0.853,0 0.853,0 0.853,0 l 40.96,-5.12 c 2.56,0 4.267,-1.707 5.973,-3.413 l 24.328,-35.68 c 0.459,-0.297 0.89,-0.63 1.272,-1.013 l 148.924,-149.742 12.356,12.356 c 1.707,1.707 3.413,2.56 5.973,2.56 2.56,0 5.12,-1.707 6.827,-2.56 l 12.986,-13.467 35.654,35.654 c 17.903,17.903 40.917,49.435 71.594,95.444 1.1,16.423 7.821,31.757 19.713,43.649 12.8,12.8 29.867,19.627 47.787,19.627 2.56,0 5.12,0 6.827,0 2.56,0 5.12,-1.707 6.827,-4.267 1.707,-2.56 1.707,-5.973 0,-8.533 L 431.64,456.237 c 5.973,-11.093 17.067,-17.92 29.867,-17.067 l 23.893,40.96 c 0.853,2.56 4.267,4.267 6.827,4.267 3.413,-0.853 5.973,-1.707 7.68,-4.267 20.48,-30.722 11.946,-71.682 -17.92,-93.015 z m -192,-135.68 c -5.973,2.56 -13.653,6.827 -18.773,11.947 -4.14,4.14 -6.462,9.687 -7.669,15.372 L 231.96,247.169 c 5.973,-0.853 11.947,-3.413 16.213,-7.68 5.973,-5.12 11.947,-17.92 16.213,-29.867 l 37.547,37.547 c -2.812,1.004 -5.669,2.154 -8.464,3.386 -1.138,0.016 -2.31,0.294 -3.482,0.88 z M 441.027,22.742 c 6.827,-6.827 17.92,-6.827 24.747,0 l 23.04,23.04 c 6.827,6.827 6.827,17.92 0,24.747 L 319.428,239.063 271.641,191.276 Z M 19.48,54.315 37.4,85.035 c 1.707,2.56 4.267,4.267 6.827,4.267 h 4.267 c 19.627,0.853 37.547,-9.387 46.08,-26.453 l 1.707,-4.267 c 1.707,-2.56 1.707,-5.12 0,-7.68 L 77.507,18.475 c 10.24,1.707 19.627,6.827 27.307,14.507 8.798,9.531 14.431,21.585 14.764,34.533 -0.165,0.657 -0.258,1.364 -0.258,2.161 0,3.952 -0.477,7.807 -1.36,11.523 -3.219,12.356 -10.938,23.129 -21.68,30.291 C 79.213,122.583 56.173,122.583 39.107,110.637 21.187,97.835 13.507,74.795 19.48,54.315 Z m 73.387,78.507 c 4.267,-1.707 9.387,-4.267 13.653,-6.827 12.8,-8.533 21.333,-19.627 26.453,-33.28 16.213,27.307 36.693,52.907 62.293,78.507 l 47.294,47.294 c -1.863,3.512 -3.776,6.469 -5.48,8.173 -5.12,4.267 -17.92,3.413 -23.893,3.413 -2.061,0 -4.116,0.634 -5.802,1.878 l -36.012,-36.012 c -26.453,-26.453 -51.2,-46.933 -78.506,-63.146 z m -48.64,357.546 -27.307,3.413 3.413,-26.453 28.504,-19.282 14.665,14.665 z m 29.866,-40.96 -11.947,-11.947 144.213,-143.36 11.947,11.947 z m 174.08,-138.24 -47.787,-47.787 11.947,-11.947 47.487,47.487 c -0.283,0.425 -0.521,0.865 -0.718,1.317 z m 32.255,-6.145 c 1.245,-1.685 1.878,-3.74 1.878,-5.802 v 0 0 c -0.32,-2.56 -0.64,-5.84 -0.645,-9.21 -0.008,-5.617 0.858,-11.483 4.058,-14.683 1.117,-1.304 3.048,-2.729 5.454,-4.161 0.02,-0.012 0.039,-0.023 0.059,-0.035 0.962,-0.571 2,-1.142 3.091,-1.707 l 46.863,46.863 c 15.328,16.18 41.707,36.61 79.979,62.137 -5.585,1.879 -10.964,4.493 -15.979,7.837 -12.57,8.799 -21.883,20.845 -26.608,34.76 -4.92,-7.213 -9.648,-14.012 -14.196,-20.41 l 11.79,-11.79 c 3.413,-3.413 3.413,-8.533 0,-11.947 -3.413,-3.413 -8.533,-3.413 -11.947,0 l -9.875,9.875 c -3.55,-4.81 -6.978,-9.347 -10.285,-13.608 l 8.213,-8.213 c 3.413,-3.413 3.413,-8.533 0,-11.947 -3.413,-3.413 -8.533,-3.413 -11.947,0 l -6.901,6.901 c -6.123,-7.358 -11.779,-13.635 -16.992,-18.848 z m 210.945,152.065 -17.92,-30.72 c -1.707,-2.56 -4.267,-4.267 -6.827,-4.267 h -4.267 c -19.627,-1.707 -37.547,9.387 -46.08,26.453 l -1.707,4.267 c -1.707,2.56 -1.707,5.12 0,7.68 l 18.773,32.427 c -10.24,-1.707 -19.627,-6.827 -27.307,-14.507 -8.631,-9.351 -14.21,-21.13 -14.735,-33.797 0.146,-0.624 0.228,-1.294 0.228,-2.043 0,-9.591 2.696,-18.643 7.328,-26.399 0.006,-0.01 0.011,-0.02 0.017,-0.029 0.022,-0.037 0.047,-0.072 0.07,-0.109 3.941,-6.364 9.253,-11.881 15.625,-16.129 1.019,-0.714 2.052,-1.375 3.095,-1.993 6.664,-3.497 14.31,-5.687 22.505,-5.687 1.449,0 2.62,-0.283 3.677,-0.83 9.865,0.238 19.673,3.607 27.896,9.364 17.923,12.799 25.603,35.839 19.629,56.319 z"
   id="path142" />
			<path
   d="m 308.76,202.795 c 1.707,1.707 3.413,2.56 5.973,2.56 2.56,0 4.267,-0.853 5.973,-2.56 L 465.773,57.728 c 3.413,-3.413 3.413,-8.533 0,-11.947 -3.413,-3.414 -8.533,-3.413 -11.947,0 L 308.76,190.848 c -3.413,3.414 -3.413,8.534 0,11.947 z"
   id="path144" />
		</g>
	</g>
</g>
</svg>
